<svg id="Layer_4" data-name="Layer 4" xmlns="http://www.w3.org/2000/svg" viewBox="0 0 113.502 44.005"><defs><style>.cls-1{fill:#ffc05a;}.cls-2{fill:#fff;}.cls-3{fill:#262626;}</style></defs><title>logo</title><path class="cls-1" d="M91.665,0A21.8,21.8,0,0,0,72.322,11.812a10.211,10.211,0,0,1,2.458.676,9.666,9.666,0,0,1,3.317,2.3,10.44,10.44,0,0,1,2.153,3.568,13.258,13.258,0,0,1,.774,4.633,14.151,14.151,0,0,1-.732,4.654,10.151,10.151,0,0,1-2.117,3.609,9.517,9.517,0,0,1-3.318,2.316,9.839,9.839,0,0,1-1.462.472A21.8,21.8,0,0,0,113.5,22,21.918,21.918,0,0,0,91.667,0h0Z" transform="translate(0.001)"/><path class="cls-2" d="M0,6.87l6.065-.981v6.356H13.35V17.33H6.066v7.586a6.068,6.068,0,0,0,.671,3.073,2.873,2.873,0,0,0,2.707,1.148,11.474,11.474,0,0,0,2.015-.184,10.347,10.347,0,0,0,1.892-.512L14.2,33.2a17.035,17.035,0,0,1-2.442.779,14.128,14.128,0,0,1-3.3.328,10.764,10.764,0,0,1-4.113-.68,6.448,6.448,0,0,1-2.6-1.885A7.047,7.047,0,0,1,.388,28.809,17.425,17.425,0,0,1,0,24.994V6.87Z" transform="translate(0.001)"/><path class="cls-2" d="M37.05,33.073a33.287,33.287,0,0,1-3.988.841,32.5,32.5,0,0,1-5.128.39,12.071,12.071,0,0,1-4.539-.739,6.884,6.884,0,0,1-2.869-2.07,8.1,8.1,0,0,1-1.508-3.178,17.18,17.18,0,0,1-.448-4.06V12.242h6.064V23.518a8.8,8.8,0,0,0,.773,4.265A3.066,3.066,0,0,0,28.3,29.1q0.651,0,1.384-.062t1.3-.143V12.242h6.064V33.073h0Z" transform="translate(0.001)"/><path class="cls-2" d="M43.044,6.87l6.064-.981v6.356h7.285V17.33H49.108v7.586a6.068,6.068,0,0,0,.672,3.073,2.873,2.873,0,0,0,2.707,1.148,11.474,11.474,0,0,0,2.015-.184,10.347,10.347,0,0,0,1.892-.512L57.25,33.2a17.035,17.035,0,0,1-2.442.779,14.128,14.128,0,0,1-3.3.328A10.764,10.764,0,0,1,47.4,33.63a6.448,6.448,0,0,1-2.6-1.885,7.047,7.047,0,0,1-1.363-2.932A17.425,17.425,0,0,1,43.045,25V6.87h0Z" transform="translate(0.001)"/><path class="cls-2" d="M78.179,31.249A10.151,10.151,0,0,0,80.3,27.64a14.151,14.151,0,0,0,.732-4.651,13.258,13.258,0,0,0-.774-4.634A10.44,10.44,0,0,0,78.1,14.787a9.666,9.666,0,0,0-3.317-2.3,10.211,10.211,0,0,0-2.458-.676,11.854,11.854,0,0,0-1.8-.145,10.679,10.679,0,0,0-4.206.823,9.873,9.873,0,0,0-3.338,2.3,10.535,10.535,0,0,0-2.2,3.568,12.969,12.969,0,0,0-.792,4.632,13.442,13.442,0,0,0,.773,4.654,10.614,10.614,0,0,0,2.157,3.606,9.5,9.5,0,0,0,3.317,2.316,10.88,10.88,0,0,0,4.294.821,11.79,11.79,0,0,0,2.873-.348,9.839,9.839,0,0,0,1.462-.472A9.517,9.517,0,0,0,78.179,31.249Zm-4.457-3.773a3.56,3.56,0,0,1-2.713,1.613,4.425,4.425,0,0,1-.481.051,3.673,3.673,0,0,1-3.212-1.664,7.82,7.82,0,0,1-1.144-4.487,7.62,7.62,0,0,1,1.144-4.453,3.687,3.687,0,0,1,3.125-1.61c0.032,0,.059-0.009.091-0.009a3.653,3.653,0,0,1,3.2,1.62,7.728,7.728,0,0,1,1.11,4.452A7.932,7.932,0,0,1,73.722,27.476Z" transform="translate(0.001)"/><path class="cls-3" d="M98.932,18.242q-0.718-.182-1.693-0.381a10.417,10.417,0,0,0-2.092-.2,9.727,9.727,0,0,0-1.208.089,7,7,0,0,0-1.063.2v14.6H87.5V14.464a32.243,32.243,0,0,1,3.407-.965,19.512,19.512,0,0,1,4.38-.454q0.433,0,1.045.055c0.408,0.037.817,0.089,1.226,0.145s0.817,0.134,1.226.218a5.846,5.846,0,0,1,1.045.309Z" transform="translate(0.001)"/></svg>